<svg xmlns="http://www.w3.org/2000/svg" xmlns:xlink="http://www.w3.org/1999/xlink" xmlns:shaper="http://www.shapertools.com/namespaces/shaper" shaper:fusionaddin="version:1.8.0" width="13.3147912cm" height="12.663119cm" version="1.1" x="0cm" y="0cm" viewBox="0 0 13.3147912 12.663119" enable-background="new 0 0 13.3147912 12.663119" xml:space="preserve"><g id="Body_Bastion Perimeter"><path d="M4.2797543,3.8905765 L2.8522546,2.9277157 1.903028,3.6173692 2.3776413,5.2725425 0,7 -2.3776413,5.2725425 -1.903028,3.6173692 -2.8522546,2.9277157 -4.2797543,3.8905765 -6.6573956,2.163119 -5.7492175,-0.631966 -4.0283906,-0.6920586 -3.6658183,-1.8079414 -5.0226749,-2.868034 -4.1144968,-5.663119 -1.1755705,-5.663119 -0.5866543,-4.045085 0.5866543,-4.045085 1.1755705,-5.663119 4.1144968,-5.663119 5.0226749,-2.868034 3.6658183,-1.8079414 4.0283906,-0.6920586 5.7492175,-0.631966 6.6573956,2.163119 4.2797543,3.8905765z" transform="matrix(1,0,0,-1,6.6573956,7)" fill="rgb(0,0,0)" shaper:cutdepth="0.5cm" stroke-linecap="round" stroke-linejoin="round" data-index="0" style="opacity: 1; visibility: visible; fill: rgb(255, 255, 255);"></path><path d="M-1.2233762,4.8750972 L-0.7487629,3.2199239 -2.8309491,1.7071271 -4.2584489,2.6699878 -5.4818251,1.7811529 -5.014537,0.3429879 -3.2937101,0.2828953 -2.4983857,-2.1648613 -3.8552424,-3.2249539 -3.3879542,-4.663119 -1.875778,-4.663119 -1.2868618,-3.045085 1.2868618,-3.045085 1.875778,-4.663119 3.3879542,-4.663119 3.8552424,-3.2249539 2.4983857,-2.1648613 3.2937101,0.2828953 5.014537,0.3429879 5.4818251,1.7811529 4.2584489,2.6699878 2.8309491,1.7071271 0.7487629,3.2199239 1.2233762,4.8750972 -0,5.763932 -1.2233762,4.8750972z" transform="matrix(1,0,0,-1,6.6573956,7)" fill="rgb(255,255,255)" stroke="rgb(0,0,0)" stroke-width="0.0010cm" stroke-linecap="round" stroke-linejoin="round" shaper:cutdepth="0.5cm" data-index="1" style="opacity: 1; visibility: visible; fill: rgb(32, 28, 131);"></path></g><g id="Body_Thin Brow"><path d="M-2.5303301,0.2803301 A3.2345493,3.2345493 141.4700008 0,0 2.5303301,0.2803301 L2,-0.25 A2.5,2.5 36.8698976 0,1 -2,-0.25 L-2.5303301,0.2803301z" transform="matrix(1,0,0,-1,6.6573956,7)" fill="rgb(0,0,0)" shaper:cutdepth="0.5cm" stroke-linecap="round" stroke-linejoin="round" data-index="2" style="opacity: 1; visibility: visible; fill: rgb(255, 255, 255);"></path></g><g id="Body_Eye"><path d="M0,-1 L0,0 1,0 1,-1 0,-1z" transform="matrix(1,0,0,-1,6.6573956,7)" fill="rgb(0,0,0)" shaper:cutdepth="0.5cm" stroke-linecap="round" stroke-linejoin="round" data-index="3" style="opacity: 1; visibility: visible; fill: rgb(255, 255, 255);"></path></g></svg>